<svg xmlns="http://www.w3.org/2000/svg" xmlns:xlink="http://www.w3.org/1999/xlink" >
<defs>
    <style>.a{fill:none;}.b{fill:#fff;}.c{clip-path:url(#a);}.d{fill:#b4897d;}.e{fill:#88645f;}.f{fill:#f8cdc3;}.g{fill:#009e7d;}</style>
</defs>

<g class="c">
    <path class="d" d="M72.6856,36.4548,57.7324,31.37l-4.29,7.97L35.81,43.2755l-.5753-2.5837a.6361.6361,0,0,1,.0093-.3128l.785-2.75a.49.49,0,0,0-.0512-.3854l-2.85-4.7369L30.7976,22.04l-.057-.0192L7.3561,14.17l21.2583,95.4622,4.1653.5833.0353-.065Zm-36.953,6.8381-.1927.043L33.1831,32.7518,35.91,37.2844a.41.41,0,0,1,.0428.3224l-.7851,2.75a.72.72,0,0,0-.01.352ZM57.8344,31.6293l14.544,4.946L32.6628,109.9838l-3.8727-.5423L7.6458,14.4915l22.97,7.7118,2.203,9.8931-.0222.0133.04.0665L35.3784,43.59l.1039-.0232,18.1014-4.04Z"/>
    <rect x="37.2776" y="62.7004" width="0.0641" height="0.1065" transform="translate(-28.6787 31.5196) rotate(-33.9373)"/>
    <rect class="d" x="34.4628" y="61.5942" width="1.6033" height="0.0532" transform="translate(-31.7683 38.2261) rotate(-40.9791)"/>
    <rect class="d" x="34.7401" y="61.9457" width="1.6033" height="0.0532" transform="translate(-31.9308 38.4941) rotate(-40.9791)"/>
    <rect class="d" x="36.2754" y="63.6534" width="1.6033" height="0.0532" transform="translate(-32.6746 39.9194) rotate(-40.9791)"/>
    <rect class="d" x="35.9553" y="63.3172" width="1.6033" height="0.0532" transform="translate(-32.5325 39.6271) rotate(-40.9791)"/>
    <rect class="d" x="36.8868" y="64.3783" width="1.6034" height="0.0531" transform="translate(-33.0022 40.5043) rotate(-40.9842)"/>
    <rect class="d" x="36.5881" y="64.0344" width="1.6034" height="0.0532" transform="translate(-32.8483 40.2196) rotate(-40.9805)"/>
    <rect x="42.4978" y="59.4655" width="0.0354" height="1.2203" transform="translate(-26.3429 34.0914) rotate(-34.0386)"/>
    <rect class="d" x="30.7219" y="59.326" width="0.1065" height="1.5329" transform="translate(-12.3544 8.1496) rotate(-12.5854)"/>
    <rect class="d" x="31.6313" y="62.1633" width="0.1064" height="3.962" transform="translate(-13.2154 8.4451) rotate(-12.5854)"/>
    <path class="d" d="M26.8816,58.4885l-.1446.03.1126.5384-.1369.0286-.4971-.4956-.0139-.0659.3875-.081-.0389-.1859.1265-.0265.0389.186.1446-.03Zm-.5049.1056.3.3132.009-.0018-.0754-.36Z"/>
    <path class="d" d="M27.1576,58.563c-.0607-.2905.0411-.4546.2257-.4933s.3392.0692.4.36-.0368.4551-.2215.4937-.3443-.0736-.4042-.36m.4865-.1032c-.0456-.2181-.1373-.2959-.2367-.2752s-.157.1259-.1107.3478.1429.2964.2411.2758.1523-.1288.1063-.3484"/>
    <path class="d" d="M28.6016,58.0684a.2689.2689,0,0,0-.3488-.18.2654.2654,0,0,0-.2373.31l.133-.028a.1489.1489,0,0,1,.1264-.1691.1472.1472,0,0,1,.19.1031.1414.1414,0,0,1-.1291.1685l-.0763.0159.0216.1033.0711-.0149a.1316.1316,0,1,1,.0548.2566.1453.1453,0,0,1-.1722-.0892l-.1291.0269a.2668.2668,0,0,0,.3305.1695.2475.2475,0,0,0,.2176-.2867.1926.1926,0,0,0-.15-.1518l-.0016-.0077a.2024.2024,0,0,0,.1-.2257"/>
    <path class="d" d="M23.5727,43.9508l-.1445.03.1125.5384-.1368.0286-.4972-.4957-.0138-.0659.3873-.0809-.0388-.1858.1266-.0265.0388.1858.1445-.03Zm-.5047.1056.3.3133.009-.0019-.0754-.36Z"/>
    <path class="d" d="M23.8488,44.0252c-.0609-.2906.0409-.4547.2257-.4933.1833-.0383.3391.0692.4.36.0605.2891-.0369.455-.2214.4936s-.3442-.0736-.4041-.36m.4865-.1031c-.0457-.2182-.1375-.296-.2369-.2754s-.157.1259-.1105.3481c.0461.2207.1428.2961.2409.2756s.1523-.1289.1065-.3483"/>
    <path class="d" d="M25.3565,43.5778l-.1446.03.1127.5384-.1369.0285-.4972-.4958-.0138-.0658.3874-.0809-.0388-.1858.1265-.0265.0388.1859.1446-.03Zm-.5048.1056.3.3132.0092-.0018-.0754-.36Z"/>
    <path class="d" d="M54.3169,47.2975l-.1306-.0688-.2565.4866-.1236-.0653-.0671-.6987.0313-.06.35.1846.0885-.1681.1144.06-.0887.168.1307.0689Zm-.4561-.24.0315.4326.0082.0044.1715-.3256Z"/>
    <path class="d" d="M54.4823,47.5308c.1384-.2624.3214-.3241.4883-.2361s.2172.27.0789.5321-.3185.3271-.4855.2392-.2181-.2761-.0817-.5352m.4405.2307c.1041-.1972.083-.3156-.0069-.363s-.2011-.0031-.3069.1976-.0789.3193.01.366.2-.0022.304-.2006"/>
    <path class="d" d="M55.9291,48.1472l-.1306-.0688-.2565.4866L55.4184,48.5l-.0671-.6988.0313-.0595.35.1845.0885-.168.1143.06-.0886.1679.1307.0689Zm-.4561-.24.0314.4325.0083.0044.1714-.3256Z"/>
    <path class="d" d="M52.3125,51.0649l-.1306-.0688-.2565.4866-.1236-.0652-.067-.6989.0312-.0595.35.1845.0885-.168.1143.06-.0886.168.1307.0689Zm-.4561-.24.0314.4326.0082.0043.1716-.3256Z"/>
    <path class="d" d="M52.4778,51.2982c.1384-.2625.3214-.3241.4883-.2362s.2173.27.0789.5321-.3185.3272-.4854.2392-.2182-.276-.0818-.5351m.4406.2307c.104-.1972.0829-.3156-.0071-.363s-.2009-.0032-.3068.1975-.0789.3193.01.3661.2-.0022.3041-.2006"/>
    <path class="d" d="M53.877,51.8583a.2559.2559,0,0,1-.3576.1156.317.317,0,0,1-.0819-.0625l.0523.3958-.147-.0775-.033-.3334a.5131.5131,0,0,1,.0418-.3031.2944.2944,0,0,1,.5254.2651m-.12-.06a.1588.1588,0,1,0-.28-.1476.1584.1584,0,1,0,.28.1476"/>
    <path class="d" d="M50.9024,53.7155l-.1307-.0689-.2564.4866-.1237-.0652-.067-.6988.0313-.06.35.1847.0886-.168.1144.06-.0887.1679.1307.0689Zm-.456-.24.0313.4325.0082.0044.1716-.3256Z"/>
    <path class="d" d="M51.0677,53.9488c.1384-.2625.3214-.3241.4883-.2361s.2172.27.0789.532-.3185.3271-.4854.2392-.2182-.2761-.0818-.5351m.4406.2307c.1039-.1971.0829-.3156-.0071-.363s-.2011-.0031-.3068.1975-.0788.3193.01.3661.2-.0023.3041-.2006"/>
    <path class="d" d="M52.1624,55.0014l.037-.07a1.2086,1.2086,0,0,1,.0766-.8244l-.1236-.0651a1.2292,1.2292,0,0,0-.1049.7617l-.003.0059-.3408-.18-.0536.1014Z"/>
    <path class="d" d="M49.5253,56.3039l-.1307-.0689-.2564.4866-.1236-.0651-.067-.6989.0312-.0595.35.1845.0885-.168.1143.06-.0885.168.1307.0689Zm-.4561-.24.0314.4325.0082.0044.1716-.3256Z"/>
    <path class="d" d="M49.6907,56.5372c.1383-.2626.3214-.3241.4883-.2362s.2171.27.0788.5321-.3185.3271-.4855.2392-.2181-.2761-.0816-.5351m.4405.2307c.104-.1973.0829-.3157-.0071-.363s-.201-.0033-.3068.1975-.0788.3193.01.3661.1994-.0023.304-.2006"/>
    <path class="d" d="M51.1293,57.0762a.2279.2279,0,0,1-.2329.1219l-.0035.007a.19.19,0,0,1,.0206.2151.2349.2349,0,0,1-.3391.0748.24.24,0,0,1-.1333-.3268.184.184,0,0,1,.1868-.1027l.0037-.0071a.2258.2258,0,0,1-.0309-.2607.261.261,0,0,1,.3791-.0746.2576.2576,0,0,1,.15.3531m-.1274-.0582a.1456.1456,0,0,0-.0707-.2027.1484.1484,0,0,0-.2107.0574.1462.1462,0,0,0,.07.2069.1483.1483,0,0,0,.2114-.0616m-.4418.21a.1346.1346,0,1,0,.1806-.051.1273.1273,0,0,0-.1806.051"/>
    <path class="d" d="M27.5518,61.284l-.1444.0311.1161.5376-.1366.0295-.5-.4923-.0142-.0657.3868-.0837-.04-.1856.1262-.0272.04.1856.1445-.0312Zm-.504.1089.3021.3112.009-.002-.0778-.36Z"/>
    <path class="d" d="M27.8284,61.3564c-.0627-.29.038-.4548.2223-.4947s.34.067.4024.3571-.0339.4554-.2182.4952-.3446-.0714-.4065-.3576m.4858-.1063c-.0471-.2179-.1394-.2951-.2387-.2736s-.1561.1267-.1082.3485.1447.2953.2427.2742.1515-.13.1042-.3491"/>
    <path class="d" d="M28.8169,60.8271l.3983-.0861-.0241-.1122-.5531.12.01.0489a.3808.3808,0,0,0,.2411.2718l.1475.0586c.0638.0266.1352.0571.1519.1345a.1221.1221,0,0,1-.1028.149.1591.1591,0,0,1-.186-.1177l-.1367.0295a.2854.2854,0,0,0,.3536.2.2364.2364,0,0,0,.2093-.2867.2877.2877,0,0,0-.1953-.2048l-.1628-.0661a.25.25,0,0,1-.1514-.1386"/>
    <path class="d" d="M28.536,65.1941l-.1443.0311.1161.5376-.1367.0295-.5-.4923-.0142-.0658.3869-.0836-.04-.1856.1264-.0273.04.1857.1444-.0313Zm-.504.1088.302.3113.0091-.002-.0777-.36Z"/>
    <path class="d" d="M28.8127,65.2665c-.0627-.29.0378-.4549.2223-.4947.183-.04.34.0669.4023.3569s-.0338.4554-.2182.4954-.3446-.0714-.4064-.3576m.4857-.1063c-.0471-.2179-.1394-.2951-.2387-.2736s-.1561.1268-.1082.3486.1447.2952.2428.2741.1514-.13.1041-.3491"/>
    <path class="d" d="M29.9,65.1961l-.1689.0365.0231.107.0786-.017a.0959.0959,0,0,1,.1271.0819l.0092.0424.121-.0261-.1781-.8251-.1353.0293Z"/>
    <rect class="d" x="40.5498" y="76.4046" width="0.1064" height="2.1409" transform="translate(-46.8588 76.2844) rotate(-61.562)"/>
    <polygon class="d" points="44.197 58.117 35.063 60.151 35.066 60.169 44.201 58.134 44.197 58.117"/>
    <polygon class="d" points="44.095 58.273 35.205 60.252 35.209 60.27 44.099 58.29 44.095 58.273"/>
    <polygon class="d" points="44.031 58.42 35.291 60.366 35.295 60.383 44.035 58.437 44.031 58.42"/>
    <polygon class="d" points="43.587 58.652 35.412 60.472 35.416 60.489 43.591 58.669 43.587 58.652"/>
    <polygon class="d" points="43.325 58.843 35.454 60.596 35.457 60.613 43.328 58.86 43.325 58.843"/>
    <polygon class="d" points="42.994 59.049 35.57 60.702 35.574 60.72 42.998 59.067 42.994 59.049"/>
    <polygon class="d" points="42.675 59.253 35.664 60.814 35.668 60.832 42.678 59.27 42.675 59.253"/>
    <polygon class="d" points="42.369 59.454 35.714 60.936 35.718 60.953 42.372 59.471 42.369 59.454"/>
    <polygon class="d" points="42.119 59.642 35.818 61.046 35.821 61.063 42.123 59.66 42.119 59.642"/>
    <polygon class="d" points="41.822 59.841 35.927 61.154 35.931 61.172 41.826 59.859 41.822 59.841"/>
    <polygon class="d" points="41.454 60.056 36.025 61.265 36.028 61.283 41.458 60.073 41.454 60.056"/>
    <polygon class="d" points="41.149 60.257 36.096 61.382 36.1 61.399 41.153 60.274 41.149 60.257"/>
    <rect class="d" x="36.2591" y="61.1141" width="4.4689" height="0.0177" transform="translate(-12.3653 9.8283) rotate(-12.554)"/>
    <polygon class="d" points="40.188 60.869 36.419 61.709 36.423 61.726 40.192 60.887 40.188 60.869"/>
    <polygon class="d" points="39.871 61.073 36.485 61.827 36.489 61.844 39.875 61.09 39.871 61.073"/>
    <polygon class="d" points="39.592 61.268 36.625 61.928 36.629 61.946 39.596 61.285 39.592 61.268"/>
    <polygon class="d" points="39.35 61.455 36.669 62.052 36.673 62.069 39.353 61.472 39.35 61.455"/>
    <polygon class="d" points="39.125 61.637 36.872 62.139 36.876 62.156 39.129 61.655 39.125 61.637"/>
    <polygon class="d" points="38.734 61.857 36.9 62.266 36.904 62.283 38.738 61.875 38.734 61.857"/>
    <polygon class="d" points="38.434 62.057 37.014 62.373 37.018 62.39 38.438 62.074 38.434 62.057"/>
    <polygon class="d" points="38.129 62.258 37.11 62.484 37.114 62.502 38.133 62.275 38.129 62.258"/>
    <polygon class="d" points="37.767 62.471 37.182 62.601 37.186 62.619 37.771 62.488 37.767 62.471"/>
    <rect class="d" x="36.1333" y="60.9699" width="4.8226" height="0.0177" transform="translate(-12.3334 9.8365) rotate(-12.5547)"/>
    <polygon class="b" points="33.426 61.797 32.894 61.915 32.898 61.932 33.429 61.814 33.426 61.797"/>
    <polygon class="d" points="37.815 77.496 37.814 77.496 37.72 77.447 38.824 75.356 38.416 75.14 38.243 75.468 38.246 75.47 38.217 75.525 38.214 75.523 37.321 77.214 37.275 77.19 37.274 77.193 36.111 76.577 36.14 76.522 37.254 77.112 37.448 76.744 36.351 76.164 36.38 76.109 37.477 76.69 37.672 76.321 36.535 75.719 36.564 75.664 37.701 76.266 37.896 75.897 36.788 75.311 36.817 75.256 37.925 75.842 38.12 75.473 37.054 74.909 37.083 74.854 38.149 75.418 38.345 75.047 37.208 74.446 37.237 74.391 40.046 75.877 40.017 75.931 38.941 75.362 38.748 75.729 39.865 76.32 39.835 76.375 38.719 75.784 38.524 76.152 39.64 76.744 39.611 76.798 38.495 76.207 38.3 76.576 39.401 77.159 39.372 77.214 38.271 76.631 38.076 77 39.192 77.591 39.163 77.646 38.047 77.055 37.844 77.441 38.974 78.039 38.945 78.094 37.815 77.496"/>
    <rect class="d" x="38.8436" y="73.1237" width="0.0621" height="3.2528" transform="translate(-45.3775 74.1312) rotate(-62.1019)"/>
    <rect class="d" x="39.0799" y="72.6983" width="0.0621" height="3.2691" transform="translate(-44.8831 74.117) rotate(-62.1012)"/>
    <rect class="d" x="48.3491" y="61.7917" width="0.1065" height="2.1732" transform="translate(-29.9382 75.497) rotate(-61.562)"/>
    <rect class="d" x="20.9916" y="41.0433" width="0.6487" height="0.1064" transform="translate(-8.4245 5.6169) rotate(-12.5562)"/>
    <rect class="d" x="21.0376" y="41.2578" width="0.5" height="0.1064" transform="translate(-8.4723 5.6163) rotate(-12.5571)"/>
    <rect class="d" x="24.9209" y="36.1324" width="0.5001" height="0.1064" transform="translate(-7.261 6.3336) rotate(-12.5492)"/>
    <rect class="d" x="25.1104" y="36.326" width="0.3555" height="0.1064" transform="translate(-7.3066 6.3705) rotate(-12.5612)"/>
    <polygon class="d" points="26.466 40.852 23.878 41.428 21.187 42.027 21.098 41.626 21.097 41.626 21.074 41.522 21.421 41.444 21.445 41.548 21.202 41.602 21.268 41.9 23.751 41.347 23.483 40.14 23.184 38.8 21.942 39.077 20.701 39.353 20.789 39.751 20.685 39.774 20.574 39.273 20.312 38.1 20.416 38.077 20.678 39.249 21.919 38.973 23.161 38.696 22.878 37.423 22.594 36.15 20.11 36.703 20.202 37.116 20.099 37.139 19.983 36.622 22.571 36.046 25.262 35.446 25.359 35.881 25.359 35.881 25.382 35.985 24.749 36.126 24.726 36.022 25.255 35.904 25.182 35.573 22.698 36.126 22.981 37.4 23.265 38.673 24.507 38.397 25.749 38.12 25.481 36.918 25.585 36.895 25.876 38.201 26.156 39.46 26.052 39.484 25.772 38.224 24.53 38.501 23.288 38.777 23.624 40.285 23.855 41.324 26.339 40.771 26.259 40.41 25.784 40.516 25.761 40.412 26.34 40.283 26.363 40.387 26.363 40.387 26.466 40.852"/>
    <rect class="d" x="25.8561" y="40.1347" width="0.4568" height="0.1064" transform="translate(-8.1131 6.6321) rotate(-12.5566)"/>
    <rect class="d" x="25.9433" y="39.926" width="0.3248" height="0.1064" transform="translate(-8.0623 6.6267) rotate(-12.5482)"/>
    <polygon class="d" points="27.619 46.029 22.34 47.205 21.164 41.923 26.443 40.748 27.338 44.766 27.234 44.789 26.362 40.875 21.291 42.004 22.421 47.078 27.492 45.948 27.443 45.729 26.915 45.847 26.891 45.743 27.525 45.602 27.548 45.706 27.547 45.706 27.619 46.029"/>
    <rect class="d" x="26.998" y="45.4571" width="0.5" height="0.1064" transform="translate(-9.2431 7.013) rotate(-12.5576)"/>
    <rect class="d" x="27.0941" y="45.232" width="0.3555" height="0.1064" transform="translate(-9.1961 7.0152) rotate(-12.5614)"/>
    <polygon class="d" points="23.914 54.486 24.024 54.98 24.011 54.983 24.017 55.011 23.383 55.152 23.36 55.048 23.903 54.927 23.787 54.405 26.168 53.874 26.192 53.978 23.914 54.486"/>
    <rect class="d" x="23.5551" y="55.1582" width="0.5001" height="0.1064" transform="translate(-11.427 6.491) rotate(-12.5487)"/>
    <rect class="d" x="23.7445" y="55.3519" width="0.3555" height="0.1064" transform="translate(-11.4766 6.5285) rotate(-12.5607)"/>
    <rect class="b" x="26.0703" y="53.3351" width="0.1064" height="0.6486" transform="translate(-11.0644 6.9815) rotate(-12.5854)"/>
    <rect class="b" x="26.2848" y="53.4378" width="0.1064" height="0.5" transform="translate(-11.0655 7.0289) rotate(-12.5854)"/>
    <rect class="b" x="26.5098" y="53.534" width="0.1065" height="0.3555" transform="translate(-11.0653 7.0785) rotate(-12.5854)"/>
    <polygon class="d" points="19.422 44.373 16.835 44.949 16.221 42.194 16.221 42.194 15.625 39.518 18.213 38.942 18.547 40.444 19.077 40.326 19.1 40.43 18.467 40.571 18.445 40.472 18.445 40.472 18.132 39.069 15.752 39.599 16.319 42.145 18.699 41.615 18.643 41.363 18.747 41.339 18.809 41.618 18.817 41.655 18.826 41.696 18.89 41.982 18.786 42.005 18.728 41.745 16.348 42.275 16.915 44.822 19.295 44.292 19.002 42.976 19.001 42.973 18.994 42.938 18.979 42.872 19.612 42.731 19.635 42.835 19.106 42.953 19.422 44.373"/>
    <rect class="d" x="18.9405" y="42.6185" width="0.5" height="0.1064" transform="translate(-8.8187 5.1932) rotate(-12.5576)"/>
    <rect class="d" x="18.8956" y="42.4248" width="0.3556" height="0.1064" transform="translate(-8.7744 5.1594) rotate(-12.55)"/>
    <rect class="d" x="18.4934" y="40.6098" width="0.5001" height="0.1064" transform="translate(-8.3874 5.044) rotate(-12.5492)"/>
    <rect class="d" x="18.5418" y="40.8349" width="0.3555" height="0.1064" transform="translate(-8.4445 5.05) rotate(-12.5614)"/>
    <rect class="d" x="22.7989" y="50.9541" width="0.5" height="0.1065" transform="translate(-10.5383 6.2312) rotate(-12.5571)"/>
    <rect class="d" x="22.9883" y="51.1478" width="0.3556" height="0.1063" transform="translate(-10.5714 6.2567) rotate(-12.5492)"/>
    <path class="d" d="M28.8351,51.49,28.01,47.7866l.0023-.0005-.0134-.0606-.0023.0005-.2853-1.281.0022,0-.0114-.052-.0024,0-.1042-.4677-5.27,1.1736.8077,3.6269-.53.1179.0231.1039.6333-.1411-.0114-.0511h0l-.211-.9478,2.0675-.46.6193,2.7815-2.0676.46-.1817-.816-.1038.0231.2048.92,4.0105-.8931-.0231-.1038-1.7351.3864-.3179-1.4272,1.0739-.2381,0,.0012.1038-.0231-.4834-2.1709.4509-.1.4873,2.1883.0226-.005,0,.0018,1.24-.2747.3128,1.4043-.2464.055-.118-.53-.1038.0232.1409.6332.0718-.016v.0007l.3824-.0852Zm-2.659-2.8864-1.0737.2379-.0869-.39,1.0737-.2385Zm-.7642,1.6281,1.0738-.2379.0879.394-1.0739.238Zm-.0993-.446,1.0739-.238.0877.3941L25.4,50.18Zm-.0993-.4461,1.0738-.2379.0878.394-1.0739.238Zm-.0994-.4461,1.0738-.2379.0878.3941-1.0738.2379Zm-.5934-2.1748.5622,2.5241-2.0675.46L22.453,47.18Zm3.0756-.303-2.8913.6407-.08-.3608,2.8907-.6438Zm.0984.4418-2.8914.6406-.0867-.39,2.8912-.6407Zm.0992.446-2.8912.6407-.0858-.3854,2.8912-.6407Zm.0992.4452-2.8909.6424-.086-.3863,2.8913-.6407Zm.1065.4786-1.1585.2567-.0929-.4173,1.1584-.2574Zm.0991.4445-1.1586.2567-.0856-.3839,1.1587-.2567Zm.0971.4366-1.1585.2567-.0837-.3759,1.1585-.2567Zm.1009.4526-1.1586.2567-.0873-.3921,1.1586-.2566Zm.0969.4353-1.1586.2567-.0835-.3747L28.31,49.622Z"/>
    <rect class="d" x="28.1384" y="51.1814" width="0.1064" height="0.5001" transform="translate(-10.5087 7.3606) rotate(-12.5587)"/>
    <rect class="d" x="27.9447" y="51.3708" width="0.1064" height="0.3556" transform="translate(-10.5594 7.3392) rotate(-12.5854)"/>
    <rect class="d" x="29.8128" y="57.5298" width="0.5" height="0.1064" transform="translate(-11.8006 7.9138) rotate(-12.5576)"/>
    <rect class="d" x="30.0023" y="57.7235" width="0.3556" height="0.1064" transform="translate(-11.8333 7.9383) rotate(-12.55)"/>
    <path class="d" d="M32.133,73.146l-.2781-1.2489-.1038.0233.2549,1.1448-2.2847.5088L29.2105,71.28l2.2847-.5089.0488.2192.1039-.0231-.2764-1.2416-.1038.0231.2044.9186-3.8175.85-1.8052-8.1067,5.45-1.2137-.0115-.0519.0009,0-.0682-.307H31.22l-.0116-.0518-.6332.1409.0231.1039.53-.1181.0453.2032-5.3474,1.1909L25.2012,60.5l5.4855-1.2216-.2194-.9852-.104.0231.1963.8815L25.178,60.3962l-.6251-2.8072,5.3983-1.2019.2033.9129-.5365.12.0231.1039.6333-.1411-.0169-.0756.0072-.0016-.8888-3.9915-2.2492.501.0233.104,2.1451-.478.6329,2.8426L24.53,57.4852l-.0669-.3-.0033.0007-.0107-.0483-.6333.141.0232.1039.5326-.1187,3.7363,16.7785Zm-2.5156.4512-1.4289.3181-.5108-2.2936,1.4289-.3182Z"/>
    <rect class="d" x="23.9222" y="56.9924" width="0.5" height="0.1064" transform="translate(-11.8247 6.6202) rotate(-12.5576)"/>
    <rect class="d" x="24.0183" y="56.7673" width="0.3555" height="0.1064" transform="translate(-11.7785 6.6224) rotate(-12.5614)"/>
    <rect class="d" x="30.6814" y="61.6413" width="0.5" height="0.1063" transform="translate(-12.6659 8.1946) rotate(-12.5492)"/>
    <rect class="d" x="30.7776" y="61.4161" width="0.3555" height="0.1064" transform="translate(-12.6278 8.2038) rotate(-12.5614)"/>
    <rect class="b" x="23.4385" y="62.0699" width="0.5001" height="0.1064" transform="translate(-12.9321 6.6311) rotate(-12.5492)"/>
    <rect class="b" x="23.3937" y="61.8762" width="0.3555" height="0.1064" transform="translate(-12.9046 6.6088) rotate(-12.5614)"/>
    <polygon class="b" points="23.927 63.855 21.34 64.431 20.744 61.754 20.13 59 22.718 58.423 23.051 59.919 23.58 59.801 23.603 59.905 22.97 60.046 22.947 59.942 22.947 59.942 22.637 58.55 20.258 59.08 20.825 61.627 23.204 61.097 23.162 60.908 23.266 60.885 23.314 61.1 23.314 61.1 23.413 61.545 23.309 61.568 23.233 61.227 20.854 61.757 21.421 64.304 23.8 63.774 23.501 62.428 23.5 62.428 23.477 62.324 24.11 62.183 24.133 62.287 23.605 62.404 23.927 63.855"/>
    <rect class="b" x="22.9965" y="60.0847" width="0.5001" height="0.1064" transform="translate(-12.5113 6.4877) rotate(-12.5492)"/>
    <rect class="b" x="23.0448" y="60.3098" width="0.3555" height="0.1064" transform="translate(-12.5723 6.4955) rotate(-12.5614)"/>
    <rect class="b" x="27.5084" y="77.5847" width="0.5001" height="0.1064" transform="translate(-16.2059 7.8861) rotate(-12.5492)"/>
    <rect class="b" x="27.4635" y="77.391" width="0.3555" height="0.1064" transform="translate(-16.182 7.8657) rotate(-12.5619)"/>
    <polygon class="b" points="27.997 79.369 25.41 79.945 24.814 77.269 24.814 77.269 24.2 74.514 26.788 73.938 27.121 75.434 27.65 75.316 27.673 75.42 27.04 75.561 27.016 75.457 27.017 75.457 26.707 74.065 24.327 74.595 24.894 77.142 27.274 76.612 27.232 76.423 27.336 76.399 27.384 76.615 27.384 76.615 27.483 77.059 27.379 77.082 27.303 76.742 24.923 77.272 25.491 79.819 27.87 79.288 27.57 77.942 27.57 77.942 27.547 77.839 28.18 77.698 28.203 77.801 27.674 77.919 27.997 79.369"/>
    <rect class="b" x="27.0663" y="75.5995" width="0.5" height="0.1064" transform="translate(-15.7953 7.7491) rotate(-12.5579)"/>
    <rect class="b" x="27.1146" y="75.8246" width="0.3555" height="0.1064" transform="translate(-15.8496 7.7523) rotate(-12.5619)"/>
    <polygon class="d" points="37.781 85.051 34.252 83.14 35.781 80.317 36.182 80.534 36.131 80.627 35.824 80.461 34.397 83.097 35.617 83.758 37.045 81.121 36.811 80.989 36.813 80.985 36.766 80.959 37.023 80.488 37.117 80.539 36.908 80.921 37.32 81.154 37.53 80.78 37.623 80.832 37.361 81.3 37.268 81.249 37.268 81.247 37.138 81.173 35.71 83.808 37.738 84.907 39.166 82.271 38.04 81.661 38.091 81.568 39.311 82.229 37.781 85.051"/>
    <polygon class="d" points="36.588 80.862 36.774 80.522 36.867 80.573 36.681 80.913 36.588 80.862"/>
    <polygon class="d" points="36.399 80.76 36.516 80.546 36.61 80.597 36.493 80.811 36.399 80.76"/>
    <polygon class="d" points="37.445 81.347 37.636 81.009 37.729 81.061 37.538 81.399 37.445 81.347"/>
    <polygon class="d" points="37.633 81.451 37.753 81.24 37.846 81.291 37.726 81.503 37.633 81.451"/>
    <polygon class="d" points="32.425 67.366 30.896 67.707 31.11 68.667 31.006 68.69 30.792 67.73 26.922 68.591 26.899 68.488 30.769 67.626 30.769 67.626 32.299 67.285 32.233 66.988 32.336 66.965 32.415 67.317 32.414 67.317 32.425 67.366"/>
    <rect class="d" x="31.6824" y="66.9285" width="0.6488" height="0.1064" transform="translate(-13.7966 8.5605) rotate(-12.5566)"/>
    <rect class="d" x="31.7851" y="66.714" width="0.5" height="0.1063" transform="translate(-13.7417 8.5556) rotate(-12.5492)"/>
    <rect class="d" x="31.8813" y="66.4889" width="0.3556" height="0.1063" transform="translate(-13.693 8.556) rotate(-12.55)"/>
    <polygon class="d" points="40.788 79.288 42.701 75.769 40.837 74.759 38.245 79.544 40.109 80.554 40.226 80.338 40.226 80.338 40.274 80.251 40.843 80.562 40.792 80.655 40.316 80.395 40.152 80.698 36.447 78.691 36.498 78.598 38.151 79.493 40.743 74.709 37.926 73.183 35.334 77.967 35.604 78.113 35.879 77.645 35.971 77.698 35.642 78.258 35.577 78.219 35.576 78.219 35.19 78.01 37.883 73.039 42.845 75.726 40.882 79.339 40.788 79.288"/>
    <rect class="d" x="35.6482" y="78.0649" width="0.5001" height="0.1065" transform="translate(-49.6429 69.5246) rotate(-59.5826)"/>
    <rect class="d" x="35.8688" y="78.2358" width="0.3556" height="0.1065" transform="translate(-49.7168 69.7344) rotate(-59.581)"/>
    <rect class="d" x="40.512" y="79.9891" width="0.1065" height="0.5001" transform="translate(-49.2978 77.3238) rotate(-61.3228)"/>
    <rect class="d" x="40.5516" y="79.8385" width="0.1065" height="0.3555" transform="translate(-49.0817 77.2426) rotate(-61.3228)"/>
    <polygon class="d" points="46.655 77.923 44.017 82.792 41.686 81.53 42.395 80.222 42.41 80.23 41.92 79.96 41.971 79.867 42.54 80.18 42.488 80.273 42.488 80.273 41.83 81.487 43.974 82.648 45.217 80.354 43.073 79.193 42.925 79.466 42.832 79.415 43.164 78.802 43.257 78.852 43.124 79.099 45.268 80.26 46.51 77.966 44.367 76.805 43.697 78.041 43.698 78.042 43.647 78.135 43.077 77.825 43.128 77.732 43.603 77.99 44.324 76.661 46.655 77.923"/>
    <rect class="d" x="42.3398" y="79.6779" width="0.1065" height="0.5" transform="translate(-48.0699 78.4807) rotate(-61.1424)"/>
    <rect class="d" x="42.5065" y="79.597" width="0.1065" height="0.3556" transform="translate(-47.8502 78.5943) rotate(-61.1721)"/>
    <rect class="d" x="43.3022" y="77.8976" width="0.1065" height="0.5" transform="translate(-46.01 78.896) rotate(-61.4588)"/>
    <rect class="d" x="43.2632" y="78.1926" width="0.1065" height="0.3557" transform="translate(-46.2256 79.0474) rotate(-61.5031)"/>
    <path class="d" d="M50.2,61.9685l.61-1.1243-4.962-2.6876-2.6933,4.9713.3662.1986-.0023.004.093.0518.3157-.5667-.0931-.0518-.2615.47-.2737-.1483,1.2142-2.2411,1.1234.5948-.1948.3686-1.0973-.581-.029.055,1.0973.5809-.1941.3673-1.1142-.59-.029.0548,1.1632.6159.0011-.0024.0453.024.8931-1.6913.0031.0016.029-.0549-.0031-.0017.1732-.3276.4083.2157-1.104,2.0906.0942.05,0-.0006,1.1024.5838-.7658,1.4137-1.6531-.8956-.0507.0937,3.7038,2.0065L49.7647,62.88l.476.2631.0517-.0933-.5693-.3145-.05.0913-1.5981,2.8457-1.865-1.01,2.5919-4.7845,1.8644,1.01-.5595,1.0306ZM48.2889,60.6l-2.8313-1.499.18-.3317,2.8313,1.499Zm-2.2768,1.5727,1.1073.5862-.208.3837-1.103-.584Zm.4476-.8476,1.1162.591-.427.7881-1.1078-.5864.1949-.3689,1.1006.5828.029-.0549-1.1007-.5828Zm-1.2309-1.8018.1992-.3677,2.8312,1.4991-.6717,1.24.0176-.0332-1.1164-.591.1948-.3689,1.1168.5913.029-.055-1.1168-.5912.1935-.3663,1.0759.5689.0291-.0549Zm-.6858,1.2659.6562-1.2113,1.11.587-.1961.3711-1.0658-.5645-.0291.0549,1.066.5645L45.89,60.96l-1.1073-.5863-.0291.0549,1.1074.5863-.1948.369Zm4.1648-.9627-.202.374-2.8312-1.4991.2164-.4006Z"/>
    <rect class="d" x="43.6145" y="63.1836" width="0.5001" height="0.1065" transform="translate(-32.7256 70.7832) rotate(-60.8799)"/>
    <rect class="d" x="43.839" y="63.3511" width="0.3555" height="0.1064" transform="translate(-32.7934 71.0059) rotate(-60.8826)"/>
    <rect class="d" x="49.9618" y="62.4741" width="0.1067" height="0.5014" transform="translate(-29.0732 76.1761) rotate(-61.0845)"/>
    <rect class="d" x="50.0024" y="62.3235" width="0.1066" height="0.3564" transform="translate(-28.857 76.0963) rotate(-61.0845)"/>
    <rect class="d" x="50.3721" y="64.8225" width="0.1065" height="0.5" transform="translate(-30.9036 77.8299) rotate(-61.1424)"/>
    <rect class="d" x="50.5388" y="64.7416" width="0.1065" height="0.3556" transform="translate(-30.6765 77.9388) rotate(-61.1721)"/>
    <polygon class="d" points="52.049 67.937 49.718 66.674 50.427 65.366 50.441 65.374 49.952 65.105 50.004 65.012 50.572 65.324 50.521 65.418 50.52 65.417 49.863 66.631 52.006 67.793 53.249 65.498 51.105 64.337 50.957 64.61 50.864 64.56 51.196 63.946 51.29 63.997 51.156 64.244 53.3 65.405 54.543 63.111 52.399 61.949 51.729 63.186 51.73 63.186 51.679 63.28 51.109 62.97 51.16 62.876 51.636 63.135 52.356 61.805 54.687 63.068 52.049 67.937"/>
    <rect class="d" x="51.3345" y="63.042" width="0.1065" height="0.5001" transform="translate(-28.7652 78.1947) rotate(-61.4589)"/>
    <rect class="d" x="51.2955" y="63.3372" width="0.1065" height="0.3555" transform="translate(-28.97 78.3388) rotate(-61.5031)"/>
    <polygon class="d" points="62.545 48.775 59.907 53.644 57.576 52.381 58.285 51.073 58.3 51.081 57.81 50.812 57.862 50.719 58.43 51.031 58.378 51.125 58.378 51.124 57.72 52.338 59.864 53.5 61.107 51.205 58.963 50.044 58.815 50.317 58.722 50.267 59.054 49.653 59.147 49.704 59.014 49.951 61.158 51.112 62.4 48.818 60.257 47.656 59.587 48.893 59.588 48.893 59.537 48.987 58.967 48.677 59.018 48.583 59.493 48.842 60.214 47.512 62.545 48.775"/>
    <rect class="d" x="58.2298" y="50.5294" width="0.1065" height="0.5001" transform="translate(-14.3201 77.3171) rotate(-61.1424)"/>
    <rect class="d" x="58.3965" y="50.4486" width="0.1065" height="0.3556" transform="translate(-14.0858 77.4218) rotate(-61.1723)"/>
    <rect class="d" x="59.1922" y="48.749" width="0.1065" height="0.5001" transform="translate(-12.1058 77.6335) rotate(-61.4589)"/>
    <rect class="d" x="59.1532" y="49.0442" width="0.1064" height="0.3555" transform="translate(-12.3 77.7708) rotate(-61.5031)"/>
    <rect class="d" x="38.2404" y="87.2571" width="0.1148" height="0.5394" transform="translate(-56.8449 78.8359) rotate(-61.1487)"/>
    <rect class="d" x="38.4202" y="87.1699" width="0.1148" height="0.3835" transform="translate(-56.6096 78.9342) rotate(-61.1645)"/>
    <polygon class="d" points="39.939 90.399 37.608 89.136 38.307 87.847 37.788 87.562 37.843 87.461 38.456 87.798 38.401 87.899 38.4 87.899 37.752 89.094 39.896 90.255 41.139 87.961 38.995 86.799 38.847 87.073 38.754 87.022 39.086 86.409 39.18 86.459 39.046 86.706 41.19 87.867 42.432 85.573 40.289 84.412 39.618 85.649 39.619 85.65 39.564 85.75 38.949 85.416 39.004 85.315 39.525 85.598 40.246 84.267 42.577 85.53 39.939 90.399"/>
    <rect class="d" x="39.1925" y="85.4939" width="0.1148" height="0.5394" transform="translate(-54.8448 79.2719) rotate(-61.4621)"/>
    <rect class="d" x="39.1503" y="85.8123" width="0.1148" height="0.3835" transform="translate(-55.0805 79.3955) rotate(-61.4833)"/>
    <polygon class="d" points="31.023 91.976 28.232 92.598 27.571 89.627 26.928 86.74 29.719 86.118 30.086 87.768 30.656 87.641 30.681 87.753 29.998 87.905 29.973 87.793 29.974 87.792 29.632 86.255 27.065 86.827 27.677 89.574 30.243 89.002 30.19 88.761 30.302 88.736 30.362 89.005 30.369 89.04 30.38 89.089 30.467 89.476 30.354 89.501 30.275 89.142 27.708 89.714 28.32 92.461 30.886 91.889 30.574 90.486 30.573 90.487 30.548 90.375 31.231 90.223 31.256 90.334 30.686 90.461 31.023 91.976"/>
    <rect class="d" x="30.5065" y="90.1007" width="0.5394" height="0.1147" transform="translate(-18.8584 8.8435) rotate(-12.5523)"/>
    <rect class="d" x="30.4581" y="89.8918" width="0.3835" height="0.1148" transform="translate(-18.8165 8.8114) rotate(-12.5526)"/>
    <rect class="d" x="30.0269" y="87.9466" width="0.5393" height="0.1148" transform="translate(-18.4018 8.6878) rotate(-12.5523)"/>
    <rect class="d" x="30.0791" y="88.1894" width="0.3835" height="0.1148" transform="translate(-18.4556 8.6883) rotate(-12.5526)"/>
    <rect class="d" x="52.1453" y="58.5864" width="0.1065" height="0.6486" transform="translate(-24.4804 76.6732) rotate(-61.4994)"/>
    <rect class="d" x="52.1771" y="58.4467" width="0.1065" height="0.5001" transform="translate(-24.2758 76.5893) rotate(-61.4994)"/>
    <rect class="d" x="52.216" y="58.2961" width="0.1065" height="0.3555" transform="translate(-24.0594 76.5069) rotate(-61.4994)"/>
    <rect class="d" x="51.4266" y="48.0066" width="0.1065" height="0.5001" transform="translate(-15.7437 69.7014) rotate(-60.8421)"/>
    <rect class="d" x="51.468" y="47.8563" width="0.1065" height="0.3556" transform="translate(-15.5262 69.6294) rotate(-60.8471)"/>
    <polygon class="d" points="49.623 58.21 51.622 59.293 51.888 58.802 51.981 58.853 51.665 59.437 49.574 58.304 49.326 58.779 49.232 58.729 49.532 58.154 49.626 58.204 49.623 58.21"/>
    <rect class="d" x="49.0332" y="58.2535" width="0.5001" height="0.1064" transform="translate(-25.2012 75.0569) rotate(-62.468)"/>
    <rect class="d" x="48.9487" y="58.0902" width="0.3556" height="0.1064" transform="translate(-25.1407 74.8301) rotate(-62.468)"/>
    <rect class="d" x="48.8193" y="52.7896" width="0.1065" height="0.5" transform="translate(-21.0566 70.6933) rotate(-61.5098)"/>
    <rect class="d" x="48.858" y="52.6388" width="0.1065" height="0.3556" transform="translate(-20.8385 70.6179) rotate(-61.5157)"/>
    <polygon class="d" points="53.34 57.487 52.765 57.186 52.814 57.092 52.814 57.092 53.009 56.733 48.14 54.095 46.759 56.659 48.914 57.826 48.864 57.92 46.615 56.702 48.531 53.146 48.53 53.146 48.581 53.052 49.151 53.362 49.101 53.455 48.624 53.197 48.191 54.001 53.06 56.639 54.43 54.111 49.576 51.481 49.131 52.309 49.037 52.258 50.191 50.117 50.285 50.167 49.627 51.388 54.48 54.017 55.85 51.488 50.986 48.853 50.803 49.187 50.71 49.136 51.137 48.355 51.138 48.356 51.188 48.266 51.755 48.582 51.703 48.675 51.228 48.41 51.037 48.759 55.901 51.395 58.44 46.708 53.577 44.074 51.757 47.49 51.663 47.44 53.534 43.929 58.584 46.665 52.909 57.142 53.389 57.392 53.34 57.487"/>
    <rect class="d" x="52.8636" y="57.185" width="0.1064" height="0.5001" transform="translate(-22.4861 77.7666) rotate(-62.4349)"/>
    <rect class="d" x="52.7003" y="57.414" width="0.1065" height="0.3555" transform="translate(-22.7056 77.7327) rotate(-62.4551)"/>
    <rect class="b" x="50.9169" y="49.011" width="0.1065" height="0.6487" transform="translate(-16.617 70.8741) rotate(-61.7424)"/>
    <rect class="b" x="50.7553" y="49.2292" width="0.1064" height="0.5001" transform="translate(-16.8288 70.8075) rotate(-61.7424)"/>
    <rect class="b" x="50.5902" y="49.4563" width="0.1065" height="0.3556" transform="translate(-17.0303 70.8132) rotate(-61.8013)"/>
    <path class="d" d="M58.22,32.2423l-.0469-.0118-.0172.0369-4.2067,7.7662L34.9953,44.2544,30.1774,22.62l-.0282-.01L8.1756,15.1271l.0206.0927L29.0987,109.084l3.4633.4828.0175-.0324L71.9131,36.9286Zm-4.3379,7.9153-.0606.1119L36.0365,44.23l-.0208-.0936Zm-2.7281,5.0332-.0038-.0173-20.4642,4.557a.828.828,0,0,1,.029-.1224l20.5235-4.57-.1542.2845L30.6751,49.8671a.84.84,0,0,1,.0081-.1178ZM34.3031,59.3817l-.0427-.0492L33.003,60.4246l-.0944-.424,1.114-.9675.5559.6372-1.4609,1.269-.0984-.4423Zm.7089,3.3469-.0039-.0173-1.4252.3174-.0241-.1086,1.4076-.3134.1771.2066-1.5325.3412-.0242-.1085Zm.725,6.8746.0031.0043-.0937.1724-.4906-.7464-.2382-1.0694.9392,1.4289-.1155.2124Zm.474-.8909.0092.0128-.09.1651-1.5222-2.316-.0132-.06a2.3744,2.3744,0,0,1-.0471-.7149l1.7857,2.7169-.11.2024Zm.4759-.8533.0024.0033-.0594.1094-.4052-1.82a.7388.7388,0,0,1,.3108-.7716l.519-.3353.1761.2057.2089.2439a.7388.7388,0,0,1,.0881.8271l-.5741,1.0554-.0078-.0042.0058.0078-.2613.48Zm2.4048-.6943a2.52,2.52,0,0,0-.3-2.8228l-.2032-.2374-.0405.0346.04-.035L38.541,64.05l2.2074-1.4639-.0295-.0444.03.0442a.7268.7268,0,0,1,.7213-.0488l-.0031.0058.1162.0629.0041-.0076.1066.0578-4.4923,8.2925-.13-.07,2.02-3.7135-.0218-.0119h0Zm-5.9048-9.2515,12.5957-2.8049-.0715.1319-12.44,2.77Zm.1959.2247,12.2345-2.7244-.0716.1318-12.0781,2.69Zm.98,1.1234,10.4275-2.322-.1533.283L34.5448,59.47l-.0837-.0961L44.6938,57.095l-.0038-.0174L34.4478,59.3585Zm.5322,5.4738a2.4225,2.4225,0,0,1,.2365-.3221l.98,1.4563a.8244.8244,0,0,0,.0094.3056l.1271.5708ZM36.28,66.8883l.2316,1.04L34.69,65.1572a2.4361,2.4361,0,0,1,.1756-.3709Zm-1.1114-2.5165a2.3364,2.3364,0,0,1,.298-.2776l.88,1.3077a.8558.8558,0,0,0-.2191.3951Zm.3412-.3089c.0322-.0238.0637-.0481.0972-.07l.2269-.1684.88,1.3072.0441-.03-.8808-1.3093.06-.0446-.0469-.0632,1.095,1.2786-.5073.3278a.8153.8153,0,0,0-.093.0725Zm.4166-.4993-.0269-.0316L37.0645,62.52l1.4434,1.6545.0374.0436-1.1807,1.0256-.0531-.062-.0392.0335.0392-.0336-1.3724-1.6024.0061-.0013-.0039-.0173Zm2.6539.6945.131.153c.0458.0534.0883.1087.1286.1653L37.6417,65.617a.8177.8177,0,0,0-.1214-.1918l-.1211-.1415Zm-.5186-1.9215.8856,1.3164-.35.2322-.884-1.3141-.0294.02.8839,1.3139-.0969.0644-1.0565-1.2109,1.0268-.6736.8858,1.3167-.35.2322-.8857-1.3167Zm2.7959.0761a.83.83,0,0,0-.1676.0847l-.1948.129-.8818-1.3108.3511-.23Zm-.8633-1.347.3067-.2012,1.0154,1.5091a.8331.8331,0,0,0-.4252.0255Zm.4714,1.58-.35.2321-.8831-1.3127.3513-.23Zm-.38.2517-.73.4839L38.47,62.0651l.3581-.2349.8786,1.3062.0294-.02-.8784-1.3058.3443-.2259Zm-4.2212.5938-.2616-.3056,1.1623-1.01.2644.3031Zm-.2963-.346L35.3,62.8322l1.1591-1.0069.2713.311Zm-.303-.3538L34.51,61.91l-.0027-.0118-.0062.0014-.09-.1053,1.15-.9986.8633.99Zm-.8888-1.038-.1426-.1664a.8633.8633,0,0,0-.1288-.1216l1.1232-1.0511.2974.3408Zm-.3254-.3267c-.0207-.0135-.0419-.0263-.0636-.0378a.8305.8305,0,0,0-.4859-.0917L34.9277,60.07l.2575.2952Zm.8953-1.4973,9.3527-2.0828-.0706.13L35.03,60.0258Zm-.097-.1113,9.5315-2.1225-.0707.13-9.3771,2.0882Zm-.0971-.1112,9.71-2.1623-.0706.13-9.556,2.128Zm-.0969-.1112,9.8891-2.2022-.0706.13-9.7348,2.1678Zm-.0972-.1112,10.0682-2.242-.0707.13-9.9137,2.2076Zm-.2929-.3359,10.6082-2.3623-.0716.132L34.35,59.2461Zm-.0981-.1124,10.7889-2.4025-.0713.132L34.2518,59.1338Zm-.098-.1123,10.97-2.4428-.0715.132L34.1537,59.0214Zm-.098-.1123,11.15-2.483-.0716.1319L34.0558,58.9091ZM33.8729,58.7l11.331-2.5232-.0715.1319L33.9577,58.7968Zm-.0979-.1123,11.5116-2.5635-.0715.1319L33.86,58.6844Zm-.0981-.1124,11.6924-2.6037-.0715.132L33.7617,58.5721Zm-.098-.1123,11.873-2.644-.0715.1319L33.6637,58.46Zm-.098-.1123L45.5346,55.566l-.0715.1319-11.8975,2.65Zm-.196-.2247L45.7,55.2609l-.0714.1319L33.37,58.1226Zm-.1961-.2248,12.7764-2.8451-.0715.132-12.62,2.81Zm-.098-.1124L45.9479,54.803l-.0715.132L33.0756,57.7856Zm-.098-.1123,13.1377-2.9256-.0714.1319L32.9775,57.6733Zm-.0981-.1124L46.1132,54.498l-.0714.1319L32.88,57.5609Zm-.098-.1123,13.4991-3.006-.0714.1319-13.343,2.9713Zm-.098-.1123,13.68-3.0463-.0715.132L32.6834,57.3363Zm-.0132-.0152-.0848-.0971,13.86-3.0866-.0715.1319Zm-.14-.1565c-.0146-.0172-.0281-.0354-.0421-.0532l14.04-3.1266-.0714.1319L32.487,57.1116l-.0414-.0442m11.7715.9306-.033.0608a1.2446,1.2446,0,0,1-.3451.3571l-6.4957,4.2614-2.3-2.6363Zm-.3188.5063c.0254-.0173.05-.0355.0739-.0542l-.42.7745-.23-.3423.5761-.378m-.3648.7555-.2.3686-.352-.523.3107-.2037Zm-.2187.4037-.2258.4169-.4878-.7252.3512-.23Zm-.2449.4521-.4707.8689-.76-1.13.7321-.48Zm-.49.904-.2258.4168-.8958-1.3316.3513-.23Zm-.2448.452-.2259.4168-1.0317-1.5338.3512-.23Zm-.2449.452-.2258.4168-1.1677-1.7358.3511-.23Zm-.2448.4521-.1012.1866-.1957-.1058-.0041.0075h0l.004-.0076-.003-.0017a.833.833,0,0,0-.1783-.0684L40.33,60.845l.3367-.221ZM39.1609,65.21a2.4275,2.4275,0,0,1,.0782,1.2319l-1.604-.102a.8256.8256,0,0,0,.0553-.1485l1.4705-.9814m.0648,1.29a2.3684,2.3684,0,0,1-.2265.612l-1.5463-.4306.1544-.2841,1.6184.1027m-.2551.6648-.3078.5657-1.38-.7374.1408-.2589Zm-.3332.6125-.2107.3871-1.3794-.7374.2141-.3937.01.014Zm-.236.4338-.2379.4372-1.38-.7374.2378-.4372Zm-.2633.484-.2106.387-1.3794-.7374.2105-.3871,0,0Zm-.236.4338-.2055.3776-1.3793-.7374.2064-.38.0032.0044Zm-.2308.4243-.226.4154-1.3793-.7374.2259-.4153Zm-.2513.4621-.2055.3776-1.3794-.7373.2087-.3837.0092.0128Zm-.2309.4244-.2111.3879-1.3752-.7449.2069-.38Zm.3852-4.093.032.0173h0Zm.1348-.2378a.8521.8521,0,0,0-.0526-.4592l.0417-.0113,1.1709-1.0172a2.4063,2.4063,0,0,1,.2716.5323l-1.4316.9554m-1.1565,2.005-.19.35-1.8067-2.7487a2.4446,2.4446,0,0,1,.1118-.4951l1.8763,2.8548Zm-.4511.8293-.2158.3967L34.885,67.8175l-.2442-1.0967Zm-.484.89-.1083.1991-.1491-.0807-.1717-.7712Zm-.3813.0514-.1439-.078L33.811,64.0527l2.01-.4476.05.0583-.326.2421a2.4531,2.4531,0,0,0-.4425.3766l-.0408.0274.0074.0111a2.5162,2.5162,0,0,0-.58,2.21l.5292,2.3763-.0069.0045.0119.0179Zm-1.429-5.8489-.0242-.1086,1.9435-.4327.0819.0956Zm-.0281-.1259-.0241-.1085,1.8765-.4179.0819.0957Zm-.028-.1258-.0241-.1085,1.8094-.403.082.0957Zm-.028-.1258-.0242-.1086,1.7426-.388.0818.0957Zm-.028-.1259-.0242-.1085,1.6755-.3731.082.0956Zm-.028-.1259-.0242-.1085,1.6085-.3582.082.0957ZM33.639,63.28l-.0242-.1084,1.5416-.3434.0819.0957Zm-.0841-.3775-.08-.36,1.2068-.2687.0819.0957-1.263.2812.0039.0173,1.2722-.2832.0819.0956-1.3238.2948.0039.0173,1.333-.2968.0819.0956Zm-.084-.3775-.0242-.1085,1.14-.2538.0819.0957Zm-.028-.1258-.0242-.1086,1.0728-.2388.0819.0956Zm-.028-.1259-.0228-.1018,1.0049-.23.0814.0951Zm-.0266-.1191-.0257-.1153.9389-.209.0824.0963Zm-.03-.1326-.0522-.2343.8-.1782c.0143.0142.0294.028.0428.0436l.0436.051-.8592.1914.0039.0173.8684-.1935.0819.0957Zm-.0559-.2516-.0243-.1086.6975-.1553a.7277.7277,0,0,1,.1163.0881Zm-.0282-.1259-.024-.1084.5186-.1156a.73.73,0,0,1,.184.0729Zm-.0279-.1257,0-.0016.0923-.0794.0991-.0221a.7313.7313,0,0,1,.2934-.0049Zm-.036-.1615-.0768-.3455,1.4876-1.2923.2632.3019-1.51,1.2994Zm-.3182-1.4289-.0947-.4255.9254-.8129.2565.2939Zm-.1108-.4981-.0961-.4316.7464-.6424.2484.2845Zm-.1122-.5037-.1076-.4832.535-.4713.0694.08v0h0l.1949.2234,0,.0015.0008,0,.0266.03Zm-.1239-.5558-.315-1.4152a1.7112,1.7112,0,0,0,.1357.183l.0492.0524.0516.0593-.0011,0,.0038.0173.0107-.0023.5735.6573Zm-.1543-1.372c-.0249-.0325-.0483-.0659-.0706-.1L46.5265,53.735l-.0714.1319L32.3913,56.9987m-.0812-.1161c-.0211-.0334-.0408-.0677-.0594-.1027l14.3585-3.1974-.0715.1318L32.31,56.8826m-.0682-.1189c-.0177-.0344-.0344-.0694-.05-.105L46.6918,53.43l-.0714.1319L32.2419,56.7637m-.0562-.1217c-.0146-.0352-.0277-.071-.04-.1072l14.6285-3.2575-.0714.1319Zm-.0451-.1241c-.0116-.036-.022-.0723-.0309-.1091l14.7474-3.2841-.0715.1319Zm-.0352-.1262-.0031-.0121-.0219-.0985L46.94,52.9721l-.0715.1319Zm-.0288-.1279-.0247-.1105L47.0225,52.82l-.0715.132Zm-.0286-.1278-.0245-.1106L47.1052,52.667l-.0716.1318Zm-.0284-.1279-.0246-.1105,15.1928-3.3832-.0779.1438-.0022-.01Zm-.0284-.1277-.0248-.1106,15.3041-3.408-.0715.132Zm-.0286-.128-.0245-.11,15.4151-3.4328-.0716.1319Zm-.0284-.1277-.0246-.1106,15.5262-3.4575-.0715.132Zm-.0284-.1279-.0247-.1105L47.5184,51.904l-.0714.1319Zm-.0286-.1278-.0246-.1105L47.601,51.7514l-.0714.1319Zm-.0284-.1279-.0246-.1105,15.86-3.5317-.0714.1318Zm-.0285-.1278-.0246-.1106,15.9707-3.5564-.0715.132Zm-.0284-.1279-.0246-.1105L47.849,51.2937l-.0715.132Zm-.0285-.1278-.0246-.11,16.1929-3.606-.0715.132Zm-.0285-.1278-.0246-.1106,16.304-3.6307-.0713.1319Zm-.0285-.1279-.0246-.1105L48.097,50.8359l-.0715.132Zm-.0284-.1279-.0247-.11,16.5264-3.68-.0714.1318Zm-.0285-.1278-.0246-.11,16.6375-3.705-.0714.1319Zm-.0284-.1277-.0247-.1106,16.7486-3.73-.0714.1319Zm-.0285-.1279L31.568,53.98l16.86-3.7545-.0715.132Zm-.0285-.1279-.0246-.11L48.51,50.073l-.0715.1319Zm-.0285-.1278-.0246-.11L48.593,49.92l-.0715.1319Zm-.0285-.1278-.0246-.1106,17.1932-3.8286-.0715.1318Zm-.0284-.1279-.0246-.11,17.3042-3.8536-.0714.132Zm-.0284-.1278-.0246-.1105L48.841,49.4627l-.0773.1426-.002-.0089Zm-.0285-.1278-.0246-.1105L48.9237,49.31l-.0715.132Zm-.0285-.1278-.0246-.1106,17.6377-3.9277-.0791.1457-.0025-.0115Zm-.0285-.1279-.0246-.1105L49.089,49.0049l-.0715.1319Zm-.0285-.1278-.0246-.1106,17.86-3.9771-.0714.1318Zm-.0283-.1279-.0248-.11L49.2543,48.7l-.0715.1318Zm-.0286-.1278-.0245-.1106,18.082-4.0266-.0714.1319Zm-.0284-.1279-.0246-.1105L49.42,48.3946l-.0714.1319Zm-.0285-.1278-.0246-.1105L49.5022,48.242l-.0713.1319Zm-.0285-.1279-.0246-.1105,18.4155-4.1009-.0715.132Zm-.0285-.1278-.0245-.1105,18.5266-4.1256-.0714.1318Zm-.0284-.1279-.0246-.11,18.6378-4.15-.0716.1319Zm-.0284-.1277-.0246-.1106,18.7488-4.1751-.0715.132ZM31.08,51.79l-.0246-.11,18.86-4.2-.0715.132Zm-.0285-.1278-.0246-.1106,18.9711-4.2246-.0714.1319Zm-.0285-.1279-.0246-.1105,19.0823-4.2494-.0715.132Zm-.0285-.1278-.0245-.11,19.1934-4.2742-.0716.1319Zm-.0283-.1278-.0247-.11,19.3045-4.299-.0715.132Zm-.0286-.1278-.0246-.11,19.4157-4.3237-.0715.132Zm-.0284-.1279-.0246-.1105,19.5268-4.3484-.0715.132Zm-.0285-.1278-.0247-.1105L50.4943,46.411l-.0716.1319Zm-.0285-.1279-.0246-.1105,19.7491-4.3979-.0715.1319Zm-.0285-.1278-.0246-.1106,19.86-4.4225-.0715.1318Zm-.0284-.1279-.0246-.1105,19.9712-4.4474-.0714.132Zm-.0285-.1278-.0246-.1105,20.0824-4.4721-.0714.132Zm-.0285-.1278-.0245-.1106,20.1935-4.4968-.0716.1319Zm-.0284-.1279-.0162-.0728c-.0029-.0128-.0036-.0256-.0058-.0383l20.302-4.521-.0714.1319Zm-.0246-.1286a.8455.8455,0,0,1-.01-.1137l20.3975-4.5424-.0714.1319Zm.0346-.41a.838.838,0,0,1,.0588-.1291l20.5419-4.5744-.0715.1318Zm.0713-.15a.8386.8386,0,0,1,.0993-.1382l20.5127-4.5679-.0714.132Zm.1214-.1613a.8687.8687,0,0,1,.0724-.0683l.1062-.0874L51.4861,44.58l-.0744.1374-.001-.0046Zm.209-.1807.1935-.1591,20.2535-4.51-.0715.132Zm.2238-.184.1936-.1591,20.1123-4.4787-.0715.1319Zm.2238-.184.1936-.1591,19.9711-4.4474-.0715.132Zm.2239-.184.1935-.1592,19.83-4.4158-.0715.1319Zm.2237-.1841.1936-.1591,19.6888-4.3844-.0714.132Zm.2239-.184.1936-.1591,19.5477-4.353-.0716.132Zm.2239-.184.1936-.1592,19.4064-4.3215-.0716.132Zm.2239-.1841.1934-.159,19.2653-4.29-.0714.132Zm.2237-.1839.1936-.1591L52.23,43.2068l-.0716.1319Zm.2238-.184.1937-.1592,18.9829-4.2272-.0715.132Zm.2239-.1841.1935-.1592,18.8418-4.1957-.0715.1318Zm.2239-.184.1934-.159L52.478,42.749l-.0715.132Zm.2237-.1841.2038-.1675.0014.0058,18.5478-4.13-.0715.132Zm.224-.1839.1935-.1591,18.4181-4.1016-.0714.132Zm.2238-.1841.1934-.1591,18.2771-4.07-.0714.1319Zm.2238-.184.1934-.159,18.136-4.0387-.0715.132Zm.2238-.184.1936-.1591L52.8913,41.986l-.0715.132Zm.2238-.184.1935-.1591L52.974,41.8335l-.0715.132Zm.2239-.184.1935-.1591,17.7124-3.9444-.0715.132Zm.2237-.184.1936-.1591,17.5713-3.9129-.0715.1318Zm.2239-.184.14-.115q.0253-.0208.0489-.0431L53.222,41.3757l-.0715.132ZM53.47,40.918l-.0713.132-17.38,3.87a.9459.9459,0,0,0,.0406-.1251ZM36.0633,44.7761a.9361.9361,0,0,0,.0194-.12l17.47-3.89-.0714.1319Zm17.3239-3.7055-.0714.1319L35.9405,45.0718a.9681.9681,0,0,0,.07-.1316Zm-.0825.1526-.0716.1319L35.81,45.2349a.95.95,0,0,0,.1163-.1419Zm-17.22,3.4141a.9232.9232,0,0,0,.0016-.1165l17.5492-3.9079-.0715.132Zm.0008-.1345a.9474.9474,0,0,0-.0142-.1128l17.6468-3.93-.0714.1319Zm-.0174-.13-.0033-.0179-.024-.1075L53.81,40.29l-.0809.1495Zm22.16-12.015L71.76,36.9887,32.5036,109.4513l-3.317-.4625-20.8658-93.7,21.7657,7.4121,4.828,21.68.9974-.2221.0486.2184a.8461.8461,0,0,1-.29.8415l-4.7529,3.9077a.9562.9562,0,0,0-.3277.9509l1.3017,5.8455.1068.4792v0l1.028,4.6159-.0071.0061.0112.0128.5046,2.2659-.0158.0035.0039.0173.0158-.0035,1.46,6.5559,2.2452,1.216.0254-.0468L44.2752,58.114c.0349-.0535.0686-.111.1014-.1737l.2124-.4053h0l5.1336-9.4761.0084-.0019-.0021-.01,3.4306-6.3326.6134-1.1324.0009,0,0-.0011Z"/>
    <path class="e" d="M32.2143,77.9149a.4347.4347,0,0,1-.6369.2078l-.2764-.147.4533-.8521.2764.147a.436.436,0,0,1,.1836.6443m-.1322-.0656a.3085.3085,0,0,0-.119-.4662l-.1424-.0758-.33.6208.1424.0758a.3028.3028,0,0,0,.4493-.1546"/>
    <path class="e" d="M33.2214,77.9041l-.112-.06-.051.0665-.0085-.0045a.2289.2289,0,0,0-.1324-.18.2471.2471,0,0,0-.3572.1224l-.2008.3774.1241.0661.1865-.3507a.1569.1569,0,0,1,.225-.088.17.17,0,0,1,.06.2519l-.1814.3409.1242.0661Z"/>
    <path class="e" d="M32.1754,76.0144l.1194.0635a.1281.1281,0,0,1,.1853-.0373c.056.03.0943.0783.0652.1331-.0324.0609-.1007.0542-.1731.0375l-.0539-.013c-.0866-.0195-.1977-.0365-.26.08a.2163.2163,0,0,0,.12.2917.2271.2271,0,0,0,.3233-.056l-.1192-.0634a.1107.1107,0,0,1-.1524.025c-.0535-.0284-.082-.0779-.0554-.1278.0285-.0536.0869-.0428.1555-.0282l.0527.0125c.1074.0244.2185.024.28-.0916.0647-.1217-.009-.23-.1307-.2945a.2422.2422,0,0,0-.3565.0681"/>
    <path class="e" d="M32.9413,76.3688l-.1923.3616-.1316-.07-.053.1.0426.0227c.0718.0381.0849.078.05.1438l-.0395.0742.1132.06.0881-.1656.1546.0823.053-.1-.1545-.0822.1833-.3446a.0773.0773,0,0,1,.12-.0346.2209.2209,0,0,1,.0544.0416l.0512-.0962a.4076.4076,0,0,0-.0879-.0639.1641.1641,0,0,0-.2516.0707"/>
    <path class="e" d="M33.9779,76.8515a.0481.0481,0,0,0-.0729.0253l-.1328.25a.2473.2473,0,0,1-.3645.0981.2574.2574,0,0,1-.1364-.34l.123.0654a.1307.1307,0,0,0,.0671.1731.124.124,0,0,0,.184-.0583l.0162-.03-.1764-.1174a.2181.2181,0,0,1-.1055-.2951.2014.2014,0,0,1,.3-.0652.2765.2765,0,0,1,.1531.1939.1164.1164,0,0,1,.1546-.0146l.0559.03-.05.0937Zm-.245.0493a.1692.1692,0,0,0-.0865-.2365c-.0547-.0291-.1128-.032-.1451.0289-.0312.0585.002.1167.0706.161l.137.0917Zm-.5328.4085a.1359.1359,0,1,1,.0571.18.1356.1356,0,0,1-.0571-.18m.0731.0389a.0534.0534,0,0,0,.0228.0714.0544.0544,0,0,0,.0721-.0209.0551.0551,0,0,0-.0216-.074.0541.0541,0,0,0-.0733.0235"/>
    <path class="e" d="M33.9182,77.4805l.1119.06.0575-.0788.0086.0046a.2.2,0,0,0,.1248.1913l.0389.0207.066-.1242a.5321.5321,0,0,1-.0615-.028.1893.1893,0,0,1-.0615-.2811l.1633-.3068-.1241-.066Z"/>
    <path class="e" d="M33.2971,75.3334l.2007-.3774-.1242-.0661-.1865.3506a.1569.1569,0,0,1-.2249.0882.17.17,0,0,1-.06-.2521l.1813-.3408L32.96,74.67l-.46.8644.1241.066.1749-.3287.0086.0045a.2282.2282,0,0,0,.1324.18.2471.2471,0,0,0,.3572-.1223"/>
    <path class="e" d="M34.1465,75.651c-.0071.0165-.0124.0293-.0189.0415a.3113.3113,0,0,1-.4426.16.336.336,0,0,1-.1243-.48.3294.3294,0,0,1,.4659-.1505.2863.2863,0,0,1,.1679.3392l-.1193-.0634a.1626.1626,0,0,0-.1023-.1747.1991.1991,0,0,0-.2767.0886l.45.24M33.6507,75.5a.1968.1968,0,0,0,.0881.2514.1726.1726,0,0,0,.243-.0753L33.6507,75.5"/>
    <path class="e" d="M34.1979,76.11l.112.06.0575-.0788.0085.0046a.2005.2005,0,0,0,.1248.1913l.039.0207.066-.1242a.5344.5344,0,0,1-.0616-.0281.1892.1892,0,0,1-.0614-.281l.1633-.3068-.1242-.0661Z"/>
    <path class="f" d="M30.7293,71.3851a1.2433,1.2433,0,1,0-1.6816.5136,1.2433,1.2433,0,0,0,1.6816-.5136"/>
    <path class="d" d="M30.52,70.4268l.0531-.1068-1.1156-.5546-.5014,1.0087-.0532.1069,1.1155.5546Zm-1.4571.4.4483-.9019.9019.4484-.4483.9018Z"/>
    <rect class="d" x="29.4692" y="70.3229" width="0.5095" height="0.1193" transform="translate(-46.5317 65.6608) rotate(-63.5614)"/>
    <rect class="d" x="29.6573" y="70.4164" width="0.5095" height="0.1194" transform="translate(-46.51 65.8629) rotate(-63.5478)"/>
    <path class="d" d="M29.6938,70.7a.1646.1646,0,1,0,.0748.2212.165.165,0,0,0-.0748-.2212m-.093.1884a.0456.0456,0,0,1-.02-.0612.0453.0453,0,0,1,.0811.04.0456.0456,0,0,1-.0609.021"/>
    <polygon class="d" points="29.047 71.281 29.327 71.187 29.365 71.3 29.085 71.394 28.972 71.432 28.84 71.039 28.953 71.001 29.047 71.281"/>
    <polygon class="d" points="29.521 71.377 29.634 71.339 29.766 71.733 29.653 71.771 29.559 71.49 29.278 71.585 29.24 71.471 29.521 71.377"/>
    <path class="g" d="M36.258,73.87a1.3649,1.3649,0,1,0-1.8461.5639A1.365,1.365,0,0,0,36.258,73.87"/>
    <path class="f" d="M37.6459,83.1892a1.2433,1.2433,0,1,0-1.6816.5137,1.2434,1.2434,0,0,0,1.6816-.5137"/>
    <rect class="d" x="36.1769" y="82.5008" width="0.4158" height="0.0796" transform="translate(-53.5687 75.8205) rotate(-61.9391)"/>
    <rect class="d" x="36.1906" y="82.3833" width="0.8317" height="0.0796" transform="translate(-53.3477 75.9538) rotate(-61.9391)"/>
    <rect class="d" x="36.4244" y="82.6327" width="0.4159" height="0.0796" transform="translate(-53.5541 76.1088) rotate(-61.9391)"/>
    <path class="d" d="M36.2656,83.0629a.11.11,0,1,0-.0456-.1486.11.11,0,0,0,.0456.1486m.0659-.1238a.03.03,0,1,1-.0413.0126.0305.0305,0,0,1,.0413-.0126"/>
    <path class="d" d="M35.8334,82.5841a.11.11,0,1,0,.0446.149.11.11,0,0,0-.0446-.149m-.0666.1234a.03.03,0,1,1,.0409-.0122.03.03,0,0,1-.0409.0122"/>
    <path class="d" d="M36.2832,82.2131l-.0378.07a.1688.1688,0,0,0-.2336.06.2526.2526,0,0,1,.1881.0245l-.0378.07a.1746.1746,0,0,0-.251.0871h0l-.07-.0379a.1745.1745,0,0,0-.0649-.2576l.0378-.07a.2528.2528,0,0,1,.1238.1438.1689.1689,0,0,0-.0782-.228l.0377-.07a.2527.2527,0,0,1,.1248.1467l.2142-.3965.07.0378-.2141.3965a.252.252,0,0,1,.191.024"/>
    <path class="d" d="M37.2174,82.7035h0l.1376.0715.2922-.1617.0385.07-.33.1824-.1753-.0913-.0892.1712a.1915.1915,0,0,1,.2038-.0039l-.0366.07a.1739.1739,0,0,0-.2487.0907l-.0031.0058-.07-.0366.0919-.1769a.3161.3161,0,1,1,.4932-.3026l-.0763.0422a.2372.2372,0,1,0-.38.19l.0817-.1572Z"/>
    <path class="d" d="M36.931,83.1686a.11.11,0,1,0,.0464.1479.11.11,0,0,0-.0464-.1479m-.0648.124a.0309.0309,0,0,1-.0129-.0409.03.03,0,1,1,.0129.0409"/>
    <path class="f" d="M28.12,55.869a1.2433,1.2433,0,1,0-1.6816.5136A1.2434,1.2434,0,0,0,28.12,55.869"/>
    <rect class="d" x="26.8934" y="55.3775" width="0.459" height="0.0879" transform="translate(-34.5428 53.2899) rotate(-61.9435)"/>
    <rect class="d" x="26.9084" y="55.2478" width="0.918" height="0.0879" transform="translate(-34.2985 53.4295) rotate(-61.9364)"/>
    <rect class="d" x="27.1666" y="55.5232" width="0.459" height="0.0879" transform="translate(-34.5266 53.6082) rotate(-61.9435)"/>
    <path class="d" d="M26.9912,55.998a.1213.1213,0,1,0-.05-.164.1213.1213,0,0,0,.05.164m.0728-.1366a.0336.0336,0,1,1-.0456.0139.0337.0337,0,0,1,.0456-.0139"/>
    <path class="d" d="M26.5142,55.47a.1212.1212,0,1,0,.0492.1646.1214.1214,0,0,0-.0492-.1646m-.0735.1363a.0336.0336,0,1,1,.0452-.0136.0337.0337,0,0,1-.0452.0136"/>
    <path class="d" d="M27.0107,55.06l-.0417.0774a.1862.1862,0,0,0-.2579.0658.279.279,0,0,1,.2077.0271l-.0418.0773a.1927.1927,0,0,0-.277.0961h0l-.0773-.0418a.1928.1928,0,0,0-.0716-.2844L26.4927,55a.28.28,0,0,1,.1366.1588.1864.1864,0,0,0-.0864-.2517l.0418-.0773a.2783.2783,0,0,1,.1377.1619l.2364-.4376.0773.0418-.2363.4376a.2789.2789,0,0,1,.2109.0264"/>
    <rect class="d" x="20.2054" y="37.5392" width="0.6487" height="0.1064" transform="translate(-7.4355 5.1485) rotate(-12.1203)"/>
    <rect class="d" x="20.1644" y="37.3562" width="0.5" height="0.1064" transform="translate(-7.3993 5.12) rotate(-12.1198)"/>
    <polygon class="d" points="20.15 36.882 20.215 37.18 20.458 37.128 20.48 37.232 20.133 37.307 20.048 36.909 20.15 36.882"/>
</g>
</svg>
